# xmcd
#
# Track frame offsets: 
#        150
#        13728
#        26468
#        40232
#        53759
#        69222
#        82997
#        97189
#        110277
#        124640
#        138932
#        153025
#        166406
#        179036
#        192311
#        204306
#        217121
#        228929
#
# Disc length: 3242 seconds
#
# Revision: 1
# Processed by: cddbd v1.5.2PL0 Copyright (c) Steve Scherf et al.
# Submitted via: ExactAudioCopy v0.95b2
#
DISCID=ec0ca812
DTITLE=Bo Carter - The Essential - Disc 2
DYEAR=2002
DGENRE=Blues
TTITLE0=Ram Rod Daddy
TTITLE1=Howling Tom Cat Blues
TTITLE2=She's Gonna Crawl Back Home To You
TTITLE3=All Around Man
TTITLE4=What Kind Of Scent Is This
TTITLE5=Sales Tax
TTITLE6=Last Go Round
TTITLE7=Beans
TTITLE8=Shake 'Em On Down
TTITLE9=Back To Mississippi
TTITLE10=Arrangement For Me Blues
TTITLE11=Let Me Roll Your Lemon
TTITLE12=Shoo That Chicken
TTITLE13=I Get The Blues
TTITLE14=Rolling Blues
TTITLE15=Pussy Cat Blues
TTITLE16=Who's Been Here?
TTITLE17=Bo Carter's Advice
EXTD=
EXTT0=
EXTT1=
EXTT2=
EXTT3=
EXTT4=
EXTT5=
EXTT6=
EXTT7=
EXTT8=
EXTT9=
EXTT10=
EXTT11=
EXTT12=
EXTT13=
EXTT14=
EXTT15=
EXTT16=
EXTT17=
PLAYORDER=
